<svg width="185" height="28" viewBox="0 0 185 28" fill="none" xmlns="http://www.w3.org/2000/svg">
<path d="M0.387267 27V0.914998H6.15927V11.386H18.1103V0.914998H23.9193V27H18.1103V16.159H6.15927V27H0.387267ZM38.6563 27.407C36.5596 27.407 34.5986 27.148 32.7733 26.63C30.9479 26.112 29.3939 25.3967 28.1113 24.484L29.8133 19.97C30.6519 20.5373 31.5399 21.0183 32.4773 21.413C33.4146 21.8077 34.4013 22.116 35.4373 22.338C36.4733 22.5353 37.5586 22.634 38.6933 22.634C40.4693 22.634 41.7273 22.3627 42.4673 21.82C43.2319 21.2773 43.6143 20.5867 43.6143 19.748C43.6143 18.9833 43.3553 18.4037 42.8373 18.009C42.3439 17.5897 41.4313 17.232 40.0993 16.936L35.7333 16.048C33.3406 15.5547 31.5523 14.716 30.3683 13.532C29.1843 12.348 28.5923 10.7693 28.5923 8.796C28.5923 7.11867 29.0363 5.66333 29.9243 4.43C30.8123 3.19667 32.0579 2.23467 33.6613 1.544C35.2893 0.853333 37.1886 0.507999 39.3593 0.507999C41.2093 0.507999 42.9359 0.766999 44.5393 1.285C46.1426 1.803 47.4623 2.543 48.4983 3.505L46.7963 7.723C45.7849 6.909 44.6503 6.30467 43.3923 5.91C42.1589 5.49067 40.7776 5.281 39.2483 5.281C37.6449 5.281 36.4116 5.56467 35.5483 6.132C34.7096 6.69933 34.2903 7.47633 34.2903 8.463C34.2903 9.203 34.5493 9.80733 35.0673 10.276C35.5853 10.72 36.4979 11.0777 37.8053 11.349L42.0973 12.2C44.5393 12.6933 46.3523 13.5197 47.5363 14.679C48.7203 15.8383 49.3123 17.38 49.3123 19.304C49.3123 20.932 48.8683 22.3503 47.9803 23.559C47.1169 24.7677 45.8836 25.7173 44.2803 26.408C42.7016 27.074 40.8269 27.407 38.6563 27.407ZM66.1918 27.407C63.4044 27.407 61.0118 26.852 59.0138 25.742C57.0158 24.632 55.4741 23.078 54.3888 21.08C53.3281 19.0573 52.7978 16.677 52.7978 13.939C52.7978 11.201 53.3281 8.833 54.3888 6.835C55.4741 4.837 57.0158 3.283 59.0138 2.173C61.0118 1.063 63.4044 0.507999 66.1918 0.507999C67.9924 0.507999 69.6328 0.766999 71.1128 1.285C72.5928 1.77833 73.8508 2.506 74.8868 3.468L73.0738 8.019C71.9391 7.131 70.8538 6.502 69.8178 6.132C68.8064 5.762 67.6594 5.577 66.3768 5.577C63.9348 5.577 62.0601 6.30466 60.7528 7.76C59.4701 9.19067 58.8288 11.2503 58.8288 13.939C58.8288 16.6277 59.4701 18.6997 60.7528 20.155C62.0601 21.6103 63.9348 22.338 66.3768 22.338C67.6594 22.338 68.8064 22.153 69.8178 21.783C70.8538 21.413 71.9391 20.784 73.0738 19.896L74.8868 24.447C73.8508 25.3843 72.5928 26.112 71.1128 26.63C69.6328 27.148 67.9924 27.407 66.1918 27.407ZM78.9039 27V0.914998H84.6759V11.386H96.6269V0.914998H102.436V27H96.6269V16.159H84.6759V27H78.9039ZM106.961 13.939C106.961 11.2257 107.467 8.87 108.478 6.872C109.514 4.84933 110.994 3.283 112.918 2.173C114.842 1.063 117.124 0.507999 119.763 0.507999C122.402 0.507999 124.684 1.063 126.608 2.173C128.532 3.283 130.012 4.84933 131.048 6.872C132.109 8.87 132.639 11.2133 132.639 13.902C132.639 16.64 132.109 19.0203 131.048 21.043C130.012 23.041 128.532 24.6073 126.608 25.742C124.684 26.852 122.402 27.407 119.763 27.407C117.124 27.407 114.842 26.852 112.918 25.742C111.019 24.6073 109.551 23.0287 108.515 21.006C107.479 18.9833 106.961 16.6277 106.961 13.939ZM112.992 13.939C112.992 16.6277 113.547 18.7367 114.657 20.266C115.792 21.7707 117.494 22.523 119.763 22.523C121.983 22.523 123.673 21.7707 124.832 20.266C125.991 18.7367 126.571 16.6277 126.571 13.939C126.571 11.2257 125.991 9.129 124.832 7.649C123.697 6.14433 122.008 5.392 119.763 5.392C117.494 5.392 115.792 6.14433 114.657 7.649C113.547 9.129 112.992 11.2257 112.992 13.939ZM136.373 13.939C136.373 11.2257 136.879 8.87 137.89 6.872C138.926 4.84933 140.406 3.283 142.33 2.173C144.254 1.063 146.536 0.507999 149.175 0.507999C151.814 0.507999 154.096 1.063 156.02 2.173C157.944 3.283 159.424 4.84933 160.46 6.872C161.521 8.87 162.051 11.2133 162.051 13.902C162.051 16.64 161.521 19.0203 160.46 21.043C159.424 23.041 157.944 24.6073 156.02 25.742C154.096 26.852 151.814 27.407 149.175 27.407C146.536 27.407 144.254 26.852 142.33 25.742C140.431 24.6073 138.963 23.0287 137.927 21.006C136.891 18.9833 136.373 16.6277 136.373 13.939ZM142.404 13.939C142.404 16.6277 142.959 18.7367 144.069 20.266C145.204 21.7707 146.906 22.523 149.175 22.523C151.395 22.523 153.085 21.7707 154.244 20.266C155.403 18.7367 155.983 16.6277 155.983 13.939C155.983 11.2257 155.403 9.129 154.244 7.649C153.109 6.14433 151.42 5.392 149.175 5.392C146.906 5.392 145.204 6.14433 144.069 7.649C142.959 9.129 142.404 11.2257 142.404 13.939ZM166.562 27V0.914998H172.334V22.153H184.1V27H166.562Z" fill="#001A49"/>
</svg>
